# xmcd CD database file generated by Grip 3.2.0
# 
# Track frame offsets:
#       150
#       12854
#       31288
#       49359
#       59233
#       74056
#       83391
#       98629
#       110112
#       120226
#       136394
#       147619
#       161078
#       173313
#       184667
#       199736
#       213062
#       219372
#       232193
# 
# Disc length: 3220 seconds
# 
# Revision: 1
# Processed by: cddbd v1.5.1PL2 Copyright (c) Steve Scherf et al.
# Submitted via: Grip 3.2.0
# 
DISCID=130c9213
DTITLE=Various Artist - 1. velký trampský zpěvník  Ji - K
DYEAR=2005
DGENRE=Country
TTITLE0=Jídelníček
TTITLE1=Jižní eskadrona
TTITLE2=Jižní kříž
TTITLE3=Jó, Kanada
TTITLE4=Joe Bowers
TTITLE5=Joudlejdy jou
TTITLE6=Kamarád
TTITLE7=Kapitán
TTITLE8=Kapkami si déšť
TTITLE9=Kde je moje máma
TTITLE10=Kdysi byl mojí láskou
TTITLE11=Když ohně zaplanou
TTITLE12=Když se večer blíží
TTITLE13=Když v pastvinách
TTITLE14=Krásná Izabel
TTITLE15=Kruci, kluci
TTITLE16=Kryté vozy
TTITLE17=Květ sakury bílé
TTITLE18=Květinářka
EXTD=Vložila Agina
EXTT0=
EXTT1=
EXTT2=
EXTT3=
EXTT4=
EXTT5=
EXTT6=
EXTT7=
EXTT8=
EXTT9=
EXTT10=
EXTT11=
EXTT12=
EXTT13=
EXTT14=
EXTT15=
EXTT16=
EXTT17=
EXTT18=
PLAYORDER=
